<?xml version="1.0"?>
<svg xmlns="http://www.w3.org/2000/svg"  version="1.1" width="512" height="512" x="0" y="0" viewBox="0 0 512 512" style="enable-background:new 0 0 512 512" xml:space="preserve" class="svg-off"><g>
<path xmlns="http://www.w3.org/2000/svg" style="" d="M312.264,51.852v46.714c76.614,23.931,132.22,95.441,132.22,179.94  c0,104.097-84.387,188.484-188.484,188.484l-22.505,22.505L256,512c128.955,0,233.495-104.539,233.495-233.495  C489.495,168.95,414.037,77.034,312.264,51.852z" fill="#c5c2c2" class=""/>
<g xmlns="http://www.w3.org/2000/svg">
	<path style="" d="M67.516,278.505c0-84.499,55.605-156.009,132.22-179.94V51.852   C97.963,77.034,22.505,168.95,22.505,278.505C22.505,407.461,127.045,512,256,512v-45.011   C151.903,466.989,67.516,382.602,67.516,278.505z" fill="#c5c2c2" class=""/>
	<rect x="233.495" style="" width="45.011" height="278.505" fill="#c5c2c2" class=""/>
</g>
</g>
</svg>
